<svg xmlns="http://www.w3.org/2000/svg" viewBox="0 0 29.494 24"><defs><style>.a{fill:gray;}</style></defs><path class="a" d="M49.594,66.844a12.234,12.234,0,0,1-3.475.956,6.072,6.072,0,0,0,2.663-3.35,12.023,12.023,0,0,1-3.844,1.469,6.049,6.049,0,0,0-10.469,4.138,5.924,5.924,0,0,0,.156,1.381A17.148,17.148,0,0,1,22.15,65.106a6.063,6.063,0,0,0,1.881,8.088,5.91,5.91,0,0,1-2.75-.756v.075a6.056,6.056,0,0,0,4.856,5.938,6.091,6.091,0,0,1-1.594.213,5.709,5.709,0,0,1-1.138-.112,6.061,6.061,0,0,0,5.656,4.206,12.132,12.132,0,0,1-7.519,2.594,12.265,12.265,0,0,1-1.444-.088A16.914,16.914,0,0,0,29.362,88c11.144,0,17.231-9.231,17.231-17.238,0-.262-.006-.525-.019-.781A12.318,12.318,0,0,0,49.594,66.844Z" transform="translate(-20.1 -64)"/></svg>