<?xml version="1.0" encoding="utf-8"?>
<!-- Generator: Adobe Illustrator 23.0.1, SVG Export Plug-In . SVG Version: 6.00 Build 0)  -->
<svg version="1.1" id="Layer_1" xmlns="http://www.w3.org/2000/svg" xmlns:xlink="http://www.w3.org/1999/xlink" x="0px" y="0px"
	 viewBox="0 0 24 24" style="enable-background:new 0 0 24 24;" xml:space="preserve">
<style type="text/css">
	.st0{fill:#CC3300;}
</style>
<g transform="translate(-64 -64)">
	<path class="st0" d="M81,66c2.8,0,5,2.2,5,5v10c0,2.8-2.2,5-5,5H71c-2.8,0-5-2.2-5-5V71c0-2.8,2.2-5,5-5H81 M81,64H71
		c-3.9,0-7,3.1-7,7v10c0,3.9,3.1,7,7,7h10c3.9,0,7-3.1,7-7V71C88,67.1,84.9,64,81,64z"/>
	<path class="st0" d="M82.5,71c-0.8,0-1.5-0.7-1.5-1.5s0.7-1.5,1.5-1.5s1.5,0.7,1.5,1.5S83.3,71,82.5,71z M76,72c2.2,0,4,1.8,4,4
		s-1.8,4-4,4s-4-1.8-4-4S73.8,72,76,72 M76,70c-3.3,0-6,2.7-6,6s2.7,6,6,6s6-2.7,6-6S79.3,70,76,70z"/>
</g>
</svg>
