<svg xmlns="http://www.w3.org/2000/svg" viewBox="0 0 24 24"><defs><style>.a{fill:gray;}</style></defs><path class="a" d="M44,32A12.158,12.158,0,0,0,32,44.305a12.282,12.282,0,0,0,8.207,11.673.941.941,0,0,0,.2.021.581.581,0,0,0,.616-.611c0-.295-.011-1.066-.016-2.095a5.486,5.486,0,0,1-1.211.145,2.788,2.788,0,0,1-2.834-1.795,3.25,3.25,0,0,0-1.334-1.8c-1.045-.734-.005-.755.075-.755h.005a2.58,2.58,0,0,1,1.837,1.275,2.356,2.356,0,0,0,2.121,1.345,3.372,3.372,0,0,0,1.371-.321,2.658,2.658,0,0,1,.761-1.645c-2.663-.311-5.464-1.366-5.464-6.08a4.816,4.816,0,0,1,1.232-3.3,4.53,4.53,0,0,1,.118-3.257,1,1,0,0,1,.268-.027,5.705,5.705,0,0,1,3.032,1.291,11.154,11.154,0,0,1,6.011,0,5.7,5.7,0,0,1,3.032-1.291,1,1,0,0,1,.268.027,4.53,4.53,0,0,1,.118,3.257,4.836,4.836,0,0,1,1.232,3.3c0,4.725-2.807,5.764-5.48,6.07a2.984,2.984,0,0,1,.814,2.277c0,1.645-.016,2.973-.016,3.375a.578.578,0,0,0,.611.616,1.037,1.037,0,0,0,.214-.021A12.349,12.349,0,0,0,44,32Z" transform="translate(-32 -32)"/></svg>