<?xml version="1.0" encoding="utf-8"?>
<!-- Generator: Adobe Illustrator 23.0.1, SVG Export Plug-In . SVG Version: 6.00 Build 0)  -->
<svg version="1.1" id="e47059dc-eb26-47e6-b4ff-5d10b9de2be8"
	 xmlns="http://www.w3.org/2000/svg" xmlns:xlink="http://www.w3.org/1999/xlink" x="0px" y="0px" viewBox="0 0 19.2 19.2"
	 style="enable-background:new 0 0 19.2 19.2;" xml:space="preserve">
<style type="text/css">
	.st0{fill:#CC3300;}
</style>
<title>logo-lastfm</title>
<path class="st0" d="M9.6,0C4.3,0,0,4.3,0,9.6s4.3,9.6,9.6,9.6s9.6-4.3,9.6-9.6S14.9,0,9.6,0C9.6,0,9.6,0,9.6,0z M12.2,12.4
	c-2,0-2.7-0.9-3.1-2L8.8,9.2C8.5,8.4,8.3,7.8,7.3,7.8c-0.9,0-1.7,0.8-1.6,1.7c0,0.1,0,0.2,0,0.2c-0.1,0.9,0.6,1.7,1.5,1.8
	c0,0,0,0,0,0c0.5,0,1-0.2,1.3-0.6l0.4,1c-0.5,0.4-1.1,0.6-1.7,0.5c-1.4,0-2.6-1.1-2.6-2.5c0-0.1,0-0.1,0-0.2c-0.1-1.5,1-2.8,2.6-2.9
	c0,0,0.1,0,0.1,0c1.5,0,2.1,0.6,2.6,2.1l0.4,1.2c0.2,0.9,1.1,1.5,2,1.5c0.8,0,1.2-0.2,1.2-0.6s-0.2-0.6-0.8-0.7L11.9,10
	c-1-0.2-1.3-0.7-1.3-1.5c0-1.3,1-1.7,2.1-1.7s1.9,0.4,2,1.5l-1.2,0.1c0-0.5-0.4-0.7-0.9-0.7s-0.8,0.2-0.8,0.6c0,0.4,0.1,0.6,0.7,0.7
	l0.7,0.2c1,0.2,1.5,0.7,1.5,1.7C14.6,12,13.7,12.4,12.2,12.4z"/>
</svg>
