<?xml version="1.0" encoding="utf-8"?>
<!-- Generator: Adobe Illustrator 23.0.1, SVG Export Plug-In . SVG Version: 6.00 Build 0)  -->
<svg version="1.1" id="Layer_1" xmlns="http://www.w3.org/2000/svg" xmlns:xlink="http://www.w3.org/1999/xlink" x="0px" y="0px"
	 viewBox="0 0 24 24" style="enable-background:new 0 0 24 24;" xml:space="preserve">
<style type="text/css">
	.st0{fill:#2B2B2B;}
</style>
<path class="st0" d="M12,0C5.3,0.1-0.1,5.6,0,12.3c0,5.2,3.3,9.9,8.2,11.7c0.1,0,0.1,0,0.2,0C8.7,24,9,23.8,9,23.5c0,0,0,0,0-0.1
	c0-0.3,0-1.1,0-2.1c-0.4,0.1-0.8,0.1-1.2,0.1c-1.2,0.1-2.4-0.6-2.8-1.8c-0.2-0.7-0.7-1.4-1.3-1.8c-1-0.7,0-0.8,0.1-0.8h0
	c0.8,0.1,1.5,0.6,1.8,1.3c0.4,0.8,1.2,1.3,2.1,1.3c0.5,0,0.9-0.1,1.4-0.3c0.1-0.6,0.3-1.2,0.8-1.6c-2.7-0.3-5.5-1.4-5.5-6.1
	c0-1.2,0.4-2.4,1.2-3.3C5.2,7.3,5.2,6.1,5.7,5.1c0.1,0,0.2,0,0.3,0c1.1,0.1,2.2,0.6,3,1.3c2-0.6,4-0.6,6,0c0.9-0.7,1.9-1.2,3-1.3
	c0.1,0,0.2,0,0.3,0c0.4,1,0.5,2.2,0.1,3.3c0.8,0.9,1.3,2.1,1.2,3.3c0,4.7-2.8,5.8-5.5,6.1c0.6,0.6,0.9,1.4,0.8,2.3c0,1.6,0,3,0,3.4
	c0,0.3,0.2,0.6,0.5,0.6c0,0,0,0,0.1,0c0.1,0,0.1,0,0.2,0c6.4-2.3,9.8-9.3,7.5-15.8C21.6,3.4,17.1,0.1,12,0z"/>
</svg>
