<svg id="e47059dc-eb26-47e6-b4ff-5d10b9de2be8" data-name="Lastfm w/ circle" xmlns="http://www.w3.org/2000/svg" viewBox="0 0 19.2 19.2"><title>logo-lastfm</title><path d="M9.6,0a9.6,9.6,0,1,0,9.6,9.6A9.6,9.6,0,0,0,9.6,0Zm2.64,12.43c-2,0-2.69-.91-3.06-2L8.81,9.22c-.28-.85-.5-1.47-1.52-1.47a1.66,1.66,0,0,0-1.63,1.9,1.68,1.68,0,0,0,1.57,1.82,1.88,1.88,0,0,0,1.3-.57l.35,1a2.62,2.62,0,0,1-1.71.52A2.58,2.58,0,0,1,4.55,9.7a2.75,2.75,0,0,1,2.7-2.93c1.54,0,2.12.56,2.6,2.08L10.24,10a1.94,1.94,0,0,0,2,1.47c.79,0,1.2-.17,1.2-.6s-.19-.59-.78-.73L11.9,10c-1-.24-1.34-.74-1.34-1.53,0-1.27,1-1.67,2.06-1.67s1.9.43,2,1.48l-1.16.14c0-.5-.35-.71-.9-.71s-.82.23-.82.63.15.56.66.68l.74.16c1,.23,1.52.72,1.52,1.67C14.65,12,13.68,12.43,12.24,12.43Z" fill="gray"/></svg>