<?xml version="1.0" encoding="utf-8"?>
<!-- Generator: Adobe Illustrator 23.0.1, SVG Export Plug-In . SVG Version: 6.00 Build 0)  -->
<svg version="1.1" id="Layer_1" xmlns="http://www.w3.org/2000/svg" xmlns:xlink="http://www.w3.org/1999/xlink" x="0px" y="0px"
	 viewBox="0 0 24 24" style="enable-background:new 0 0 24 24;" xml:space="preserve">
<style type="text/css">
	.st0{fill:#CC3300;}
</style>
<path class="st0" d="M22.1,0h-20C1-0.1,0.1,0.8,0,1.9c0,0,0,0,0,0v20.1c0,1.1,0.9,2,2.1,2.1h20c1.1,0,2-1,1.9-2.1V1.9
	c0-1-0.8-1.9-1.8-1.9C22.2,0,22.1,0,22.1,0z M7.4,20H4V9.3h3.4L7.4,20z M5.8,7.7L5.8,7.7C4.8,7.7,4,6.8,4,5.8c0-1,0.8-1.9,1.9-1.9
	s1.9,0.8,1.9,1.9C7.7,6.9,6.9,7.7,5.8,7.7z M20,20h-3.4v-5.8c0-1.4-0.5-2.4-1.7-2.4c-0.8,0-1.5,0.5-1.8,1.3
	c-0.1,0.3-0.1,0.6-0.1,0.8V20H9.5V9.3h3.4v1.5C13.6,9.7,14.8,9,16,9.1c2.3,0,4,1.5,4,4.7L20,20z"/>
</svg>
