<?xml version="1.0" encoding="utf-8"?>
<!-- Generator: Adobe Illustrator 23.0.1, SVG Export Plug-In . SVG Version: 6.00 Build 0)  -->
<svg version="1.1" id="Layer_1" xmlns="http://www.w3.org/2000/svg" xmlns:xlink="http://www.w3.org/1999/xlink" x="0px" y="0px"
	 viewBox="0 0 29.5 24" style="enable-background:new 0 0 29.5 24;" xml:space="preserve">
<style type="text/css">
	.st0{fill:#CC3300;}
</style>
<path class="st0" d="M29.5,2.8c-1.1,0.5-2.3,0.8-3.5,1c1.3-0.8,2.2-1.9,2.7-3.3c-1.2,0.7-2.5,1.2-3.8,1.5c-2.3-2.4-6.1-2.6-8.5-0.3
	c-1.2,1.1-1.9,2.7-1.9,4.4c0,0.5,0,0.9,0.2,1.4C9.7,7.2,5.1,4.9,2,1.1C0.4,3.9,1.3,7.4,3.9,9.2C3,9.2,2,8.9,1.2,8.4v0.1
	c0,2.9,2,5.4,4.9,5.9c-0.5,0.1-1.1,0.2-1.6,0.2c-0.4,0-0.8,0-1.1-0.1C4.1,17,6.4,18.7,9,18.8c-2.1,1.7-4.8,2.6-7.5,2.6
	c-0.5,0-1,0-1.4-0.1C2.8,23.1,6,24,9.3,24c11.1,0,17.2-9.2,17.2-17.2c0-0.3,0-0.5,0-0.8C27.7,5.1,28.7,4.1,29.5,2.8z"/>
</svg>
